<?xml version="1.0" encoding="UTF-8"?>
<svg width="117px" height="107px" viewBox="0 0 117 107" version="1.1" xmlns="http://www.w3.org/2000/svg" xmlns:xlink="http://www.w3.org/1999/xlink">
    <!-- Generator: Sketch 50.2 (55047) - http://www.bohemiancoding.com/sketch -->
    <title>Group@2x</title>
    <desc>Created with Sketch.</desc>
    <defs></defs>
    <g id="Website" stroke="none" stroke-width="1" fill="none" fill-rule="evenodd">
        <g id="Artboard" transform="translate(-390.000000, -365.000000)" fill="#DCDCDC">
            <g id="Group" transform="translate(390.000000, 365.000000)">
                <g id="Group-27">
                    <path d="M66.9897498,48.6548289 C69.739578,55.0444904 80.222475,55.2994822 85.6912151,52.4602679 C93.0246628,48.6548289 91.8069062,39.0474675 89.8906716,32.5606118 C95.2237238,34.355846 102.505644,37.6581621 103.558514,43.6155952 C104.604514,49.5301485 100.812694,55.321208 98.3548523,60.4662119 C96.1626616,65.0583523 93.4059631,73.1334756 99.3968442,76.4506567 C101.923388,77.4597612 104.0068,74.4667514 105.726087,71.8436513 C107.443656,69.2245533 109.087369,66.4390817 110.211805,63.5261142 C124.008465,126.540548 -12.4529753,128.278038 6.99792265,61.5685085 C8.39888654,56.751678 10.4193204,52.1189448 12.7523518,47.6605893 C12.2193328,53.890738 12.8994902,60.5982817 17.0703206,65.5854879 C20.6411468,69.853457 28.0902441,72.1095061 29.8209813,65.0732173 C31.3753814,58.7504483 27.4032165,51.867955 26.8570295,45.6315174 C26.1700018,37.7810841 25.9673287,31.0821164 32.3549683,26.6197589 C32.8009637,30.0752988 33.7507795,32.7504264 34.7635727,34.1077149 C36.5143482,36.4563843 38.9698995,38.7318722 42.0970204,38.9394104 C48.0787412,39.3367632 53.6837418,34.8835533 56.2326144,29.8957754 C57.4080042,27.5899858 57.8276636,24.8285268 57.0690705,22.3369248 C56.0946363,19.1283725 53.2354562,18.2033124 51.0358227,15.9535524 C48.8859987,13.7541046 47.3115603,11.698733 46.6869377,8.66741727 C46.0422767,5.12954816 47.7953423,1.71345768 49.974365,-1.00969529 C51.167503,-2.50019703 52.6154138,-3.76486517 53.9888966,-5.09585406 C53.1507228,0.587720079 51.6358268,8.16600951 58.2198419,11.4980556 C63.5151075,14.1754701 69.5369049,10.9966478 74.8917129,13.8295731 C81.7722949,17.4640647 76.3819904,26.6957991 73.6808267,31.2290512 C70.5806144,36.4283695 63.9611029,41.608249 66.9897498,48.6548289" id="Fill-11" transform="translate(58.144843, 53.048989) rotate(-90.000000) translate(-58.144843, -53.048989) "></path>
                </g>
            </g>
        </g>
    </g>
</svg>