<?xml version="1.0" encoding="UTF-8"?>
<svg width="526px" height="233px" viewBox="0 0 526 233" version="1.1" xmlns="http://www.w3.org/2000/svg" xmlns:xlink="http://www.w3.org/1999/xlink">
    <!-- Generator: Sketch 50.2 (55047) - http://www.bohemiancoding.com/sketch -->
    <title>Group</title>
    <desc>Created with Sketch.</desc>
    <defs></defs>
    <g id="Website" stroke="none" stroke-width="1" fill="none" fill-rule="evenodd">
        <g id="About" transform="translate(-914.000000, -647.000000)" fill="#F9F9F9">
            <g id="Group" transform="translate(914.000000, 647.000000)">
                <path d="M738.999589,53.8741698 C717.510085,53.8741698 706.03711,46.2183962 696.817059,40.0674906 C689.048321,34.8834906 683.916377,31.4590755 671.813199,31.4590755 C659.708995,31.4590755 654.577051,34.8834906 646.808313,40.0674906 C637.588262,46.2183962 626.116313,53.8741698 604.625783,53.8741698 C583.136278,53.8741698 571.663303,46.2183962 562.444278,40.0674906 C554.676567,34.8834906 549.544623,31.4590755 537.442471,31.4590755 C525.34032,31.4590755 520.208376,34.8834906 512.440664,40.0674906 C503.221639,46.2183962 491.748664,53.8741698 470.260187,53.8741698 C448.770683,53.8741698 437.29976,46.2183962 428.081762,40.0674906 C420.314051,34.8834906 415.182106,31.4590755 403.082007,31.4590755 C390.979856,31.4590755 385.847912,34.8834906 378.079174,40.0674906 C368.861176,46.2183962 357.389227,53.8741698 335.899723,53.8741698 C314.410219,53.8741698 302.937244,46.2183962 293.719245,40.0674906 C285.951534,34.8834906 280.819589,31.4590755 268.718464,31.4590755 C256.617339,31.4590755 251.485395,34.8834906 243.717684,40.0674906 C234.499685,46.2183962 223.02671,53.8741698 201.538232,53.8741698 C180.049755,53.8741698 168.57678,46.2183962 159.358781,40.0674906 C151.59107,34.8834906 146.459126,31.4590755 134.356974,31.4590755 C122.255849,31.4590755 117.123905,34.8834906 109.356194,40.0674906 C100.137169,46.2183962 88.66522,53.8741698 67.1767422,53.8741698 C45.6882644,53.8741698 34.2163158,46.2183962 24.9983172,40.0664717 C17.2316325,34.8834906 12.1007144,31.4590755 -0.000410555556,31.4590755 L-0.000410555556,0.893037736 C21.4880672,0.893037736 32.9600158,8.54881132 42.1780144,14.699717 C49.9457256,19.883717 55.0766436,23.3081321 67.1767422,23.3081321 C79.2778672,23.3081321 84.4098117,19.883717 92.1775228,14.699717 C101.395521,8.54881132 112.86747,0.893037736 134.356974,0.893037736 C155.846478,0.893037736 167.319453,8.54881132 176.537452,14.699717 C184.305163,19.883717 189.437107,23.3081321 201.538232,23.3081321 C213.639357,23.3081321 218.771302,19.883717 226.539013,14.699717 C235.757012,8.54881132 247.229987,0.893037736 268.718464,0.893037736 C290.206942,0.893037736 301.679917,8.54881132 310.897916,14.699717 C318.665627,19.883717 323.797571,23.3081321 335.899723,23.3081321 C348.001874,23.3081321 353.133819,19.883717 360.90153,14.699717 C370.119528,8.54881132 381.592503,0.893037736 403.082007,0.893037736 C424.569459,0.893037736 436.042434,8.54881132 445.260433,14.699717 C453.028144,19.883717 458.160088,23.3081321 470.260187,23.3081321 C482.362338,23.3081321 487.494283,19.883717 495.261994,14.699717 C504.481019,8.54881132 515.952967,0.893037736 537.442471,0.893037736 C558.931976,0.893037736 570.403924,8.54881132 579.622949,14.699717 C587.39066,19.883717 592.523631,23.3081321 604.625783,23.3081321 C616.72896,23.3081321 621.860905,19.883717 629.629642,14.699717 C638.849694,8.54881132 650.322669,0.893037736 671.813199,0.893037736 C693.30373,0.893037736 704.775678,8.54881132 713.99573,14.699717 C721.764467,19.883717 726.896412,23.3081321 738.999589,23.3081321 L738.999589,53.8741698 Z" id="Fill-3"></path>
                <path d="M738.999589,115.304521 C717.510085,115.304521 706.036084,107.648747 696.817059,101.496823 C689.048321,96.3128226 683.916377,92.8894264 671.813199,92.8894264 C659.708995,92.8894264 654.577051,96.3138415 646.808313,101.497842 C637.588262,107.648747 626.116313,115.304521 604.625783,115.304521 C583.136278,115.304521 571.663303,107.648747 562.444278,101.496823 C554.676567,96.3128226 549.544623,92.8894264 537.442471,92.8894264 C525.34032,92.8894264 520.208376,96.3128226 512.440664,101.496823 C503.221639,107.648747 491.748664,115.304521 470.260187,115.304521 C448.770683,115.304521 437.29976,107.648747 428.080735,101.496823 C420.314051,96.3128226 415.182106,92.8894264 403.082007,92.8894264 C390.979856,92.8894264 385.847912,96.3128226 378.079174,101.496823 C368.861176,107.648747 357.389227,115.304521 335.899723,115.304521 C314.410219,115.304521 302.937244,107.648747 293.719245,101.496823 C285.951534,96.3128226 280.819589,92.8894264 268.718464,92.8894264 C256.617339,92.8894264 251.485395,96.3128226 243.717684,101.496823 C234.499685,107.648747 223.027737,115.304521 201.538232,115.304521 C180.049755,115.304521 168.57678,107.648747 159.358781,101.496823 C151.590044,96.3128226 146.458099,92.8894264 134.356974,92.8894264 C122.255849,92.8894264 117.123905,96.3128226 109.356194,101.496823 C100.138195,107.648747 88.66522,115.304521 67.1767422,115.304521 C45.6882644,115.304521 34.2163158,107.648747 24.9983172,101.496823 C17.2316325,96.3128226 12.0996881,92.8894264 -0.000410555556,92.8894264 L-0.000410555556,62.3233887 C21.4880672,62.3233887 32.9600158,69.9791623 42.1780144,76.1300679 C49.9457256,81.3140679 55.0766436,84.738483 67.1767422,84.738483 C79.2778672,84.738483 84.4098117,81.3140679 92.1775228,76.1300679 C101.395521,69.9791623 112.86747,62.3233887 134.356974,62.3233887 C155.846478,62.3233887 167.319453,69.9791623 176.537452,76.1300679 C184.305163,81.3140679 189.437107,84.738483 201.538232,84.738483 C213.639357,84.738483 218.771302,81.3140679 226.539013,76.1300679 C235.757012,69.9791623 247.22896,62.3233887 268.718464,62.3233887 C290.206942,62.3233887 301.679917,69.9791623 310.897916,76.1300679 C318.666653,81.3140679 323.798598,84.738483 335.899723,84.738483 C348.001874,84.738483 353.132792,81.3140679 360.90153,76.1300679 C370.119528,69.9791623 381.592503,62.3233887 403.082007,62.3233887 C424.570485,62.3233887 436.042434,69.9791623 445.260433,76.1300679 C453.028144,81.3140679 458.160088,84.738483 470.260187,84.738483 C482.362338,84.738483 487.494283,81.3140679 495.261994,76.1300679 C504.481019,69.9791623 515.952967,62.3233887 537.442471,62.3233887 C558.931976,62.3233887 570.403924,69.9781434 579.622949,76.1300679 C587.39066,81.3140679 592.523631,84.738483 604.625783,84.738483 C616.72896,84.738483 621.860905,81.3140679 629.629642,76.1300679 C638.849694,69.9781434 650.322669,62.3233887 671.813199,62.3233887 C693.30373,62.3233887 704.776705,69.9781434 713.99573,76.1300679 C721.764467,81.3140679 726.896412,84.738483 738.999589,84.738483 L738.999589,115.304521 Z" id="Fill-8"></path>
                <path d="M739,172 C717.510496,172 706.037521,164.3415 696.817469,158.188404 C689.048732,153.002558 683.916788,149.576923 671.81361,149.576923 C659.709406,149.576923 654.577461,153.002558 646.808724,158.188404 C637.588672,164.3415 626.116724,172 604.626193,172 C583.136689,172 571.663714,164.3415 562.444689,158.188404 C554.676978,153.002558 549.545033,149.576923 537.442882,149.576923 C525.340731,149.576923 520.208786,153.002558 512.441075,158.188404 C503.22205,164.3415 491.749075,172 470.260597,172 C448.771093,172 437.300171,164.3415 428.082172,158.187385 C420.314461,153.002558 415.182517,149.576923 403.082418,149.576923 C390.980267,149.576923 385.848322,153.002558 378.079585,158.188404 C368.861586,164.3415 357.389638,172 335.900133,172 C314.410629,172 302.937654,164.3415 293.719656,158.187385 C285.951944,153.002558 280.82,149.576923 268.718875,149.576923 C256.61775,149.576923 251.485806,153.002558 243.718094,158.187385 C234.500096,164.3415 223.027121,172 201.538643,172 C180.050165,172 168.57719,164.3415 159.359192,158.188404 C151.591481,153.002558 146.459536,149.576923 134.357385,149.576923 C122.25626,149.576923 117.124315,153.002558 109.356604,158.188404 C100.137579,164.3415 88.6656306,172 67.1771528,172 C45.688675,172 34.2167264,164.3415 24.9987278,158.187385 C17.2320431,153.002558 12.101125,149.576923 0,149.576923 L0,119 C21.4884778,119 32.9604264,126.6585 42.178425,132.812615 C49.9461361,137.997442 55.0770542,141.423077 67.1771528,141.423077 C79.2782778,141.423077 84.4102222,137.997442 92.1779333,132.812615 C101.395932,126.6585 112.867881,119 134.357385,119 C155.846889,119 167.319864,126.6585 176.537863,132.812615 C184.305574,137.997442 189.437518,141.423077 201.538643,141.423077 C213.639768,141.423077 218.771713,137.997442 226.539424,132.812615 C235.757422,126.6585 247.230397,119 268.718875,119 C290.207353,119 301.680328,126.6585 310.898326,132.811596 C318.666038,137.997442 323.797982,141.423077 335.900133,141.423077 C348.002285,141.423077 353.134229,137.997442 360.90194,132.812615 C370.119939,126.6585 381.592914,119 403.082418,119 C424.569869,119 436.042844,126.6585 445.260843,132.812615 C453.028554,137.997442 458.160499,141.423077 470.260597,141.423077 C482.362749,141.423077 487.494693,137.997442 495.262404,132.811596 C504.481429,126.6585 515.953378,119 537.442882,119 C558.932386,119 570.404335,126.6585 579.62336,132.811596 C587.391071,137.997442 592.524042,141.423077 604.626193,141.423077 C616.729371,141.423077 621.861315,137.997442 629.630053,132.811596 C638.850104,126.6585 650.323079,119 671.81361,119 C693.30414,119 704.776089,126.6585 713.99614,132.811596 C721.764878,137.997442 726.896822,141.423077 739,141.423077 L739,172 Z" id="Fill-13"></path>
                <path d="M739,233 C717.510496,233 706.037521,225.3415 696.817469,219.188404 C689.048732,214.002558 683.916788,210.576923 671.81361,210.576923 C659.709406,210.576923 654.577461,214.002558 646.808724,219.188404 C637.588672,225.3415 626.116724,233 604.626193,233 C583.136689,233 571.663714,225.3415 562.444689,219.188404 C554.676978,214.002558 549.545033,210.576923 537.442882,210.576923 C525.340731,210.576923 520.208786,214.002558 512.441075,219.188404 C503.22205,225.3415 491.749075,233 470.260597,233 C448.771093,233 437.300171,225.3415 428.082172,219.187385 C420.314461,214.002558 415.182517,210.576923 403.082418,210.576923 C390.980267,210.576923 385.848322,214.002558 378.079585,219.188404 C368.861586,225.3415 357.389638,233 335.900133,233 C314.410629,233 302.937654,225.3415 293.719656,219.187385 C285.951944,214.002558 280.82,210.576923 268.718875,210.576923 C256.61775,210.576923 251.485806,214.002558 243.718094,219.187385 C234.500096,225.3415 223.027121,233 201.538643,233 C180.050165,233 168.57719,225.3415 159.359192,219.188404 C151.591481,214.002558 146.459536,210.576923 134.357385,210.576923 C122.25626,210.576923 117.124315,214.002558 109.356604,219.188404 C100.137579,225.3415 88.6656306,233 67.1771528,233 C45.688675,233 34.2167264,225.3415 24.9987278,219.187385 C17.2320431,214.002558 12.101125,210.576923 0,210.576923 L0,180 C21.4884778,180 32.9604264,187.6585 42.178425,193.812615 C49.9461361,198.997442 55.0770542,202.423077 67.1771528,202.423077 C79.2782778,202.423077 84.4102222,198.997442 92.1779333,193.812615 C101.395932,187.6585 112.867881,180 134.357385,180 C155.846889,180 167.319864,187.6585 176.537863,193.812615 C184.305574,198.997442 189.437518,202.423077 201.538643,202.423077 C213.639768,202.423077 218.771713,198.997442 226.539424,193.812615 C235.757422,187.6585 247.230397,180 268.718875,180 C290.207353,180 301.680328,187.6585 310.898326,193.811596 C318.666038,198.997442 323.797982,202.423077 335.900133,202.423077 C348.002285,202.423077 353.134229,198.997442 360.90194,193.812615 C370.119939,187.6585 381.592914,180 403.082418,180 C424.569869,180 436.042844,187.6585 445.260843,193.812615 C453.028554,198.997442 458.160499,202.423077 470.260597,202.423077 C482.362749,202.423077 487.494693,198.997442 495.262404,193.811596 C504.481429,187.6585 515.953378,180 537.442882,180 C558.932386,180 570.404335,187.6585 579.62336,193.811596 C587.391071,198.997442 592.524042,202.423077 604.626193,202.423077 C616.729371,202.423077 621.861315,198.997442 629.630053,193.811596 C638.850104,187.6585 650.323079,180 671.81361,180 C693.30414,180 704.776089,187.6585 713.99614,193.811596 C721.764878,198.997442 726.896822,202.423077 739,202.423077 L739,233 Z" id="Fill-18"></path>
            </g>
        </g>
    </g>
</svg>