<?xml version="1.0" encoding="UTF-8"?>
<svg width="521px" height="403px" viewBox="0 0 521 403" version="1.1" xmlns="http://www.w3.org/2000/svg" xmlns:xlink="http://www.w3.org/1999/xlink">
    <!-- Generator: Sketch 50.2 (55047) - http://www.bohemiancoding.com/sketch -->
    <title>Group 3</title>
    <desc>Created with Sketch.</desc>
    <defs></defs>
    <g id="Website" stroke="none" stroke-width="1" fill="none" fill-rule="evenodd">
        <g id="FAQ" transform="translate(-919.000000, -771.000000)">
            <g id="Group-3" transform="translate(919.000000, 771.000000)">
                <g id="Group" fill="#F9F9F9" fill-rule="nonzero">
                    <path d="M193,4.003187 L222.52679,4.003187 L222.52679,116 L193,116 L193,30.5473545 L193,4.003187 Z M282.784409,116 C269.850033,116 257.202634,109.215258 248.222842,97.5640232 C240.138277,86.6774144 235.723513,72.6739646 235.723513,57.9230156 C235.723513,43.2472329 240.181115,29.1079009 248.232478,18.4231534 C257.12509,6.72735128 269.744877,0 282.784409,0 C295.98047,0 308.604136,6.72941886 317.332001,18.4174759 C325.505558,29.0558118 330,43.1799961 330,57.9230156 C330,72.7411724 325.548127,86.7315794 317.338161,97.5744472 C308.528832,109.211955 295.875275,116 282.784409,116 Z M282.792419,27.6679519 C277.423823,27.6679519 273.007606,30.802441 269.307534,35.4672035 C264.957476,41.3829413 262.515539,49.5098496 262.515539,57.9230156 C262.515539,66.4554103 264.947806,74.5879608 269.279273,80.4798507 C272.908587,85.0567787 277.409695,88.1780793 282.792419,88.1780793 C288.284271,88.1780793 292.806106,85.0678995 296.415979,80.5168528 C300.775707,74.5879608 303.207974,66.4554103 303.207974,57.9230156 C303.207974,49.5098496 300.766037,41.3829413 296.44424,35.5042056 C292.7078,30.792221 288.269903,27.6679519 282.792419,27.6679519 Z" id="10-copy-8" transform="translate(261.500000, 58.000000) scale(-1, 1) translate(-261.500000, -58.000000) "></path>
                    <path d="M133.922879,116 C121.026436,116 108.416129,109.215258 99.462672,97.5640232 C91.4018161,86.6774144 87,72.6739646 87,57.9230156 C87,43.2472329 91.444529,29.1079009 99.4722797,18.4231534 C108.338812,6.72735128 120.921588,0 133.922879,0 C147.08024,0 159.666884,6.72941886 168.369153,18.4174759 C176.518739,29.0558118 181,43.1799961 181,57.9230156 C181,72.7411724 176.561184,86.7315794 168.375294,97.5744472 C159.591801,109.211955 146.975354,116 133.922879,116 Z M133.930865,27.6679519 C128.578014,27.6679519 124.174749,30.802441 120.485528,35.4672035 C116.148228,41.3829413 113.713452,49.5098496 113.713452,57.9230156 C113.713452,66.4554103 116.138586,74.5879608 120.45735,80.4798507 C124.07602,85.0567787 128.563928,88.1780793 133.930865,88.1780793 C139.406612,88.1780793 143.915185,85.0678995 147.514472,80.5168528 C151.861414,74.5879608 154.286548,66.4554103 154.286548,57.9230156 C154.286548,49.5098496 151.851772,41.3829413 147.54265,35.5042056 C143.817168,30.792221 139.392285,27.6679519 133.930865,27.6679519 Z" id="10-copy-9" transform="translate(134.000000, 58.000000) scale(-1, 1) translate(-134.000000, -58.000000) "></path>
                    <path d="M432.922879,116 C420.026436,116 407.416129,109.215258 398.462672,97.5640232 C390.401816,86.6774144 386,72.6739646 386,57.9230156 C386,43.2472329 390.444529,29.1079009 398.47228,18.4231534 C407.338812,6.72735128 419.921588,0 432.922879,0 C446.08024,0 458.666884,6.72941886 467.369153,18.4174759 C475.518739,29.0558118 480,43.1799961 480,57.9230156 C480,72.7411724 475.561184,86.7315794 467.375294,97.5744472 C458.591801,109.211955 445.975354,116 432.922879,116 Z M432.930865,27.6679519 C427.578014,27.6679519 423.174749,30.802441 419.485528,35.4672035 C415.148228,41.3829413 412.713452,49.5098496 412.713452,57.9230156 C412.713452,66.4554103 415.138586,74.5879608 419.45735,80.4798507 C423.07602,85.0567787 427.563928,88.1780793 432.930865,88.1780793 C438.406612,88.1780793 442.915185,85.0678995 446.514472,80.5168528 C450.861414,74.5879608 453.286548,66.4554103 453.286548,57.9230156 C453.286548,49.5098496 450.851772,41.3829413 446.54265,35.5042056 C442.817168,30.792221 438.392285,27.6679519 432.930865,27.6679519 Z" id="10-copy-10" transform="translate(433.000000, 58.000000) scale(-1, 1) translate(-433.000000, -58.000000) "></path>
                    <polygon id="10-copy-11" transform="translate(362.000000, 60.000000) scale(-1, 1) translate(-362.000000, -60.000000) " points="347 4 377 4 377 116 347 116 347 30.5449229"></polygon>
                    <polygon id="10-copy-12" transform="translate(506.000000, 60.000000) scale(-1, 1) translate(-506.000000, -60.000000) " points="491 4 521 4 521 116 491 116 491 30.5449229"></polygon>
                    <polygon id="10-copy-13" transform="translate(15.000000, 60.000000) scale(-1, 1) translate(-15.000000, -60.000000) " points="0 4 30 4 30 116 0 116 0 30.5449229"></polygon>
                    <polygon id="10-copy-14" transform="translate(58.000000, 60.000000) scale(-1, 1) translate(-58.000000, -60.000000) " points="43 4 73 4 73 116 43 116 43 30.5449229"></polygon>
                </g>
                <circle id="Oval-3" stroke="#A8FFED" stroke-width="42" cx="353" cy="269" r="55"></circle>
                <circle id="Oval-3-Copy-4" stroke="#A8FFED" stroke-width="42" cx="528" cy="327" r="55"></circle>
            </g>
        </g>
    </g>
</svg>