<?xml version="1.0" encoding="UTF-8"?>
<svg width="640px" height="171px" viewBox="0 0 640 171" version="1.1" xmlns="http://www.w3.org/2000/svg" xmlns:xlink="http://www.w3.org/1999/xlink">
    <!-- Generator: Sketch 50.2 (55047) - http://www.bohemiancoding.com/sketch -->
    <title>img_wave_green</title>
    <desc>Created with Sketch.</desc>
    <defs></defs>
    <g id="Website" stroke="none" stroke-width="1" fill="none" fill-rule="evenodd">
        <g id="Landing-Page" transform="translate(-800.000000, -2839.000000)" fill="#A8FFED">
            <g id="img_wave_green" transform="translate(800.000000, 2839.000000)">
                <g>
                    <path d="M739,53 C717.510496,53 706.037521,45.3415 696.817469,39.1884038 C689.048732,34.0025577 683.916788,30.5769231 671.81361,30.5769231 C659.709406,30.5769231 654.577461,34.0025577 646.808724,39.1884038 C637.588672,45.3415 626.116724,53 604.626193,53 C583.136689,53 571.663714,45.3415 562.444689,39.1884038 C554.676978,34.0025577 549.545033,30.5769231 537.442882,30.5769231 C525.340731,30.5769231 520.208786,34.0025577 512.441075,39.1884038 C503.22205,45.3415 491.749075,53 470.260597,53 C448.771093,53 437.300171,45.3415 428.082172,39.1884038 C420.314461,34.0025577 415.182517,30.5769231 403.082418,30.5769231 C390.980267,30.5769231 385.848322,34.0025577 378.079585,39.1884038 C368.861586,45.3415 357.389638,53 335.900133,53 C314.410629,53 302.937654,45.3415 293.719656,39.1884038 C285.951944,34.0025577 280.82,30.5769231 268.718875,30.5769231 C256.61775,30.5769231 251.485806,34.0025577 243.718094,39.1884038 C234.500096,45.3415 223.027121,53 201.538643,53 C180.050165,53 168.57719,45.3415 159.359192,39.1884038 C151.591481,34.0025577 146.459536,30.5769231 134.357385,30.5769231 C122.25626,30.5769231 117.124315,34.0025577 109.356604,39.1884038 C100.137579,45.3415 88.6656306,53 67.1771528,53 C45.688675,53 34.2167264,45.3415 24.9987278,39.1873846 C17.2320431,34.0025577 12.101125,30.5769231 0,30.5769231 L0,0 C21.4884778,0 32.9604264,7.6585 42.178425,13.8115962 C49.9461361,18.9974423 55.0770542,22.4230769 67.1771528,22.4230769 C79.2782778,22.4230769 84.4102222,18.9974423 92.1779333,13.8115962 C101.395932,7.6585 112.867881,0 134.357385,0 C155.846889,0 167.319864,7.6585 176.537863,13.8115962 C184.305574,18.9974423 189.437518,22.4230769 201.538643,22.4230769 C213.639768,22.4230769 218.771713,18.9974423 226.539424,13.8115962 C235.757422,7.6585 247.230397,0 268.718875,0 C290.207353,0 301.680328,7.6585 310.898326,13.8115962 C318.666038,18.9974423 323.797982,22.4230769 335.900133,22.4230769 C348.002285,22.4230769 353.134229,18.9974423 360.90194,13.8115962 C370.119939,7.6585 381.592914,0 403.082418,0 C424.569869,0 436.042844,7.6585 445.260843,13.8115962 C453.028554,18.9974423 458.160499,22.4230769 470.260597,22.4230769 C482.362749,22.4230769 487.494693,18.9974423 495.262404,13.8115962 C504.481429,7.6585 515.953378,0 537.442882,0 C558.932386,0 570.404335,7.6585 579.62336,13.8115962 C587.391071,18.9974423 592.524042,22.4230769 604.626193,22.4230769 C616.729371,22.4230769 621.861315,18.9974423 629.630053,13.8115962 C638.850104,7.6585 650.323079,0 671.81361,0 C693.30414,0 704.776089,7.6585 713.99614,13.8115962 C721.764878,18.9974423 726.896822,22.4230769 739,22.4230769 L739,53 Z" id="Fill-3"></path>
                    <path d="M739,115 C717.510496,115 706.036494,107.3415 696.817469,101.187385 C689.048732,96.0015385 683.916788,92.5769231 671.81361,92.5769231 C659.709406,92.5769231 654.577461,96.0025577 646.808724,101.188404 C637.588672,107.3415 626.116724,115 604.626193,115 C583.136689,115 571.663714,107.3415 562.444689,101.187385 C554.676978,96.0015385 549.545033,92.5769231 537.442882,92.5769231 C525.340731,92.5769231 520.208786,96.0015385 512.441075,101.187385 C503.22205,107.3415 491.749075,115 470.260597,115 C448.771093,115 437.300171,107.3415 428.081146,101.187385 C420.314461,96.0015385 415.182517,92.5769231 403.082418,92.5769231 C390.980267,92.5769231 385.848322,96.0015385 378.079585,101.187385 C368.861586,107.3415 357.389638,115 335.900133,115 C314.410629,115 302.937654,107.3415 293.719656,101.187385 C285.951944,96.0015385 280.82,92.5769231 268.718875,92.5769231 C256.61775,92.5769231 251.485806,96.0015385 243.718094,101.187385 C234.500096,107.3415 223.028147,115 201.538643,115 C180.050165,115 168.57719,107.3415 159.359192,101.187385 C151.590454,96.0015385 146.45851,92.5769231 134.357385,92.5769231 C122.25626,92.5769231 117.124315,96.0015385 109.356604,101.187385 C100.138606,107.3415 88.6656306,115 67.1771528,115 C45.688675,115 34.2167264,107.3415 24.9987278,101.187385 C17.2320431,96.0015385 12.1000986,92.5769231 0,92.5769231 L0,62 C21.4884778,62 32.9604264,69.6585 42.178425,75.8115962 C49.9461361,80.9974423 55.0770542,84.4230769 67.1771528,84.4230769 C79.2782778,84.4230769 84.4102222,80.9974423 92.1779333,75.8115962 C101.395932,69.6585 112.867881,62 134.357385,62 C155.846889,62 167.319864,69.6585 176.537863,75.8115962 C184.305574,80.9974423 189.437518,84.4230769 201.538643,84.4230769 C213.639768,84.4230769 218.771713,80.9974423 226.539424,75.8115962 C235.757422,69.6585 247.229371,62 268.718875,62 C290.207353,62 301.680328,69.6585 310.898326,75.8115962 C318.667064,80.9974423 323.799008,84.4230769 335.900133,84.4230769 C348.002285,84.4230769 353.133203,80.9974423 360.90194,75.8115962 C370.119939,69.6585 381.592914,62 403.082418,62 C424.570896,62 436.042844,69.6585 445.260843,75.8115962 C453.028554,80.9974423 458.160499,84.4230769 470.260597,84.4230769 C482.362749,84.4230769 487.494693,80.9974423 495.262404,75.8115962 C504.481429,69.6585 515.953378,62 537.442882,62 C558.932386,62 570.404335,69.6574808 579.62336,75.8115962 C587.391071,80.9974423 592.524042,84.4230769 604.626193,84.4230769 C616.729371,84.4230769 621.861315,80.9974423 629.630053,75.8115962 C638.850104,69.6574808 650.323079,62 671.81361,62 C693.30414,62 704.777115,69.6574808 713.99614,75.8115962 C721.764878,80.9974423 726.896822,84.4230769 739,84.4230769 L739,115 Z" id="Fill-8"></path>
                    <path d="M739,171 C717.510496,171 706.037521,163.3415 696.817469,157.188404 C689.048732,152.002558 683.916788,148.576923 671.81361,148.576923 C659.709406,148.576923 654.577461,152.002558 646.808724,157.188404 C637.588672,163.3415 626.116724,171 604.626193,171 C583.136689,171 571.663714,163.3415 562.444689,157.188404 C554.676978,152.002558 549.545033,148.576923 537.442882,148.576923 C525.340731,148.576923 520.208786,152.002558 512.441075,157.188404 C503.22205,163.3415 491.749075,171 470.260597,171 C448.771093,171 437.300171,163.3415 428.082172,157.187385 C420.314461,152.002558 415.182517,148.576923 403.082418,148.576923 C390.980267,148.576923 385.848322,152.002558 378.079585,157.188404 C368.861586,163.3415 357.389638,171 335.900133,171 C314.410629,171 302.937654,163.3415 293.719656,157.187385 C285.951944,152.002558 280.82,148.576923 268.718875,148.576923 C256.61775,148.576923 251.485806,152.002558 243.718094,157.187385 C234.500096,163.3415 223.027121,171 201.538643,171 C180.050165,171 168.57719,163.3415 159.359192,157.188404 C151.591481,152.002558 146.459536,148.576923 134.357385,148.576923 C122.25626,148.576923 117.124315,152.002558 109.356604,157.188404 C100.137579,163.3415 88.6656306,171 67.1771528,171 C45.688675,171 34.2167264,163.3415 24.9987278,157.187385 C17.2320431,152.002558 12.101125,148.576923 0,148.576923 L0,118 C21.4884778,118 32.9604264,125.6585 42.178425,131.812615 C49.9461361,136.997442 55.0770542,140.423077 67.1771528,140.423077 C79.2782778,140.423077 84.4102222,136.997442 92.1779333,131.812615 C101.395932,125.6585 112.867881,118 134.357385,118 C155.846889,118 167.319864,125.6585 176.537863,131.812615 C184.305574,136.997442 189.437518,140.423077 201.538643,140.423077 C213.639768,140.423077 218.771713,136.997442 226.539424,131.812615 C235.757422,125.6585 247.230397,118 268.718875,118 C290.207353,118 301.680328,125.6585 310.898326,131.811596 C318.666038,136.997442 323.797982,140.423077 335.900133,140.423077 C348.002285,140.423077 353.134229,136.997442 360.90194,131.812615 C370.119939,125.6585 381.592914,118 403.082418,118 C424.569869,118 436.042844,125.6585 445.260843,131.812615 C453.028554,136.997442 458.160499,140.423077 470.260597,140.423077 C482.362749,140.423077 487.494693,136.997442 495.262404,131.811596 C504.481429,125.6585 515.953378,118 537.442882,118 C558.932386,118 570.404335,125.6585 579.62336,131.811596 C587.391071,136.997442 592.524042,140.423077 604.626193,140.423077 C616.729371,140.423077 621.861315,136.997442 629.630053,131.811596 C638.850104,125.6585 650.323079,118 671.81361,118 C693.30414,118 704.776089,125.6585 713.99614,131.811596 C721.764878,136.997442 726.896822,140.423077 739,140.423077 L739,171 Z" id="Fill-13"></path>
                </g>
            </g>
        </g>
    </g>
</svg>