<?xml version="1.0" encoding="utf-8"?>
<!-- Generator: Adobe Illustrator 19.2.0, SVG Export Plug-In . SVG Version: 6.00 Build 0)  -->
<svg version="1.1" id="Слой_1" xmlns="http://www.w3.org/2000/svg" xmlns:xlink="http://www.w3.org/1999/xlink" x="0px" y="0px"
	 viewBox="0 0 44 44" style="enable-background:new 0 0 44 44;" xml:space="preserve">
<style type="text/css">
	.st0{clip-path:url(#SVGID_2_);}
	.st1{clip-path:url(#SVGID_4_);fill:#FFFFFF;}
	.st2{clip-path:url(#SVGID_6_);}
	.st3{clip-path:url(#SVGID_8_);fill:#292663;}
</style>
<g>
	<defs>
		<circle id="SVGID_1_" cx="22" cy="22" r="22"/>
	</defs>
	<clipPath id="SVGID_2_">
		<use xlink:href="#SVGID_1_"  style="overflow:visible;"/>
	</clipPath>
	<g class="st0">
		<defs>
			<rect id="SVGID_3_" width="44" height="44"/>
		</defs>
		<clipPath id="SVGID_4_">
			<use xlink:href="#SVGID_3_"  style="overflow:visible;"/>
		</clipPath>
		<rect x="-5" y="-5" class="st1" width="54" height="54"/>
	</g>
</g>
<g>
	<defs>
		<path id="SVGID_5_" d="M21.7,13c-2.4,0-2.7,0-3.6,0.1c-0.9,0-1.6,0.2-2.1,0.4c-0.6,0.2-1.1,0.5-1.5,1c-0.5,0.5-0.8,1-1,1.5
			c-0.2,0.6-0.4,1.2-0.4,2.1c0,0.9-0.1,1.2-0.1,3.6c0,2.4,0,2.7,0.1,3.6c0,0.9,0.2,1.6,0.4,2.1c0.2,0.6,0.5,1.1,1,1.5
			c0.5,0.5,1,0.8,1.5,1c0.6,0.2,1.2,0.4,2.1,0.4c0.9,0,1.2,0.1,3.6,0.1c2.4,0,2.7,0,3.6-0.1c0.9,0,1.6-0.2,2.1-0.4
			c0.6-0.2,1.1-0.5,1.5-1s0.8-1,1-1.5c0.2-0.6,0.4-1.2,0.4-2.1c0-0.9,0.1-1.2,0.1-3.6c0-2.4,0-2.7-0.1-3.6c0-0.9-0.2-1.6-0.4-2.1
			c-0.2-0.6-0.5-1.1-1-1.5s-1-0.8-1.5-1c-0.6-0.2-1.2-0.4-2.1-0.4C24.4,13,24.1,13,21.7,13z M21.7,14.6c2.3,0,2.6,0,3.5,0.1
			c0.9,0,1.3,0.2,1.6,0.3c0.4,0.2,0.7,0.3,1,0.7c0.3,0.3,0.5,0.6,0.7,1c0.1,0.3,0.3,0.8,0.3,1.6c0,0.9,0.1,1.2,0.1,3.5
			s0,2.6-0.1,3.5c0,0.9-0.2,1.3-0.3,1.6c-0.2,0.4-0.3,0.7-0.7,1c-0.3,0.3-0.6,0.5-1,0.7c-0.3,0.1-0.8,0.3-1.6,0.3
			c-0.9,0-1.2,0.1-3.5,0.1c-2.3,0-2.6,0-3.5-0.1c-0.9,0-1.3-0.2-1.6-0.3c-0.4-0.2-0.7-0.3-1-0.7c-0.3-0.3-0.5-0.6-0.7-1
			c-0.1-0.3-0.3-0.8-0.3-1.6c0-0.9-0.1-1.2-0.1-3.5c0-2.3,0-2.6,0.1-3.5c0-0.9,0.2-1.3,0.3-1.6c0.2-0.4,0.3-0.7,0.7-1
			c0.3-0.3,0.6-0.5,1-0.7c0.3-0.1,0.8-0.3,1.6-0.3C19.1,14.6,19.4,14.6,21.7,14.6z M21.7,17.2c-2.5,0-4.5,2-4.5,4.5
			c0,2.5,2,4.5,4.5,4.5c2.5,0,4.5-2,4.5-4.5C26.2,19.3,24.2,17.2,21.7,17.2z M21.7,24.6c-1.6,0-2.9-1.3-2.9-2.9
			c0-1.6,1.3-2.9,2.9-2.9c1.6,0,2.9,1.3,2.9,2.9C24.6,23.3,23.3,24.6,21.7,24.6z M27.4,17.1c0,0.6-0.5,1-1,1c-0.6,0-1-0.5-1-1
			c0-0.6,0.5-1,1-1C27,16,27.4,16.5,27.4,17.1z"/>
	</defs>
	<clipPath id="SVGID_6_">
		<use xlink:href="#SVGID_5_"  style="overflow:visible;"/>
	</clipPath>
	<g class="st2">
		<defs>
			<rect id="SVGID_7_" width="44" height="44"/>
		</defs>
		<clipPath id="SVGID_8_">
			<use xlink:href="#SVGID_7_"  style="overflow:visible;"/>
		</clipPath>
		<rect x="8" y="8" class="st3" width="27.5" height="27.5"/>
	</g>
</g>
</svg>
