<?xml version="1.0" encoding="utf-8"?>
<!-- Generator: Adobe Illustrator 19.2.0, SVG Export Plug-In . SVG Version: 6.00 Build 0)  -->
<svg version="1.1" id="Слой_1" xmlns="http://www.w3.org/2000/svg" xmlns:xlink="http://www.w3.org/1999/xlink" x="0px" y="0px"
	 viewBox="0 0 44 44" style="enable-background:new 0 0 44 44;" xml:space="preserve">
<style type="text/css">
	.st0{clip-path:url(#SVGID_2_);}
	.st1{clip-path:url(#SVGID_4_);fill:#F3F3F4;}
	.st2{clip-path:url(#SVGID_6_);}
	.st3{clip-path:url(#SVGID_8_);fill:#878787;}
</style>
<g>
	<defs>
		<circle id="SVGID_1_" cx="22" cy="22" r="22"/>
	</defs>
	<clipPath id="SVGID_2_">
		<use xlink:href="#SVGID_1_"  style="overflow:visible;"/>
	</clipPath>
	<g class="st0">
		<defs>
			<rect id="SVGID_3_" x="-69" y="-428" width="1440" height="5683"/>
		</defs>
		<clipPath id="SVGID_4_">
			<use xlink:href="#SVGID_3_"  style="overflow:visible;"/>
		</clipPath>
		<rect x="-5" y="-5" class="st1" width="54" height="54"/>
	</g>
</g>
<g>
	<defs>
		<path id="SVGID_5_" d="M19,29.1c6.1,0,9.4-5,9.4-9.4c0-0.1,0-0.3,0-0.4c0.6-0.5,1.2-1,1.6-1.7c-0.6,0.3-1.2,0.4-1.9,0.5
			c0.7-0.4,1.2-1.1,1.5-1.8c-0.6,0.4-1.4,0.7-2.1,0.8c-1.3-1.3-3.3-1.4-4.7-0.1c-0.9,0.8-1.2,2-1,3.1c-2.6-0.1-5.1-1.4-6.8-3.4
			c-0.9,1.5-0.4,3.4,1,4.4c-0.5,0-1-0.2-1.5-0.4v0c0,1.6,1.1,2.9,2.6,3.2c-0.5,0.1-1,0.2-1.5,0.1c0.4,1.3,1.7,2.3,3.1,2.3
			c-1.2,0.9-2.6,1.4-4.1,1.4c-0.3,0-0.5,0-0.8,0C15.5,28.5,17.3,29.1,19,29.1"/>
	</defs>
	<clipPath id="SVGID_6_">
		<use xlink:href="#SVGID_5_"  style="overflow:visible;"/>
	</clipPath>
	<g class="st2">
		<defs>
			<rect id="SVGID_7_" x="-69" y="-428" width="1440" height="5683"/>
		</defs>
		<clipPath id="SVGID_8_">
			<use xlink:href="#SVGID_7_"  style="overflow:visible;"/>
		</clipPath>
		<rect x="9" y="11" class="st3" width="26.1" height="23.1"/>
	</g>
</g>
</svg>
